<svg aria-hidden="true" style="position: absolute; width: 0; height: 0; overflow: hidden;" version="1.1" xmlns="http://www.w3.org/2000/svg" xmlns:xlink="http://www.w3.org/1999/xlink">
<defs>
<symbol id="facebook-icon" viewBox="0 0 32 32">
<path d="M18.646 30.676h-6.546v-15.19h-3.272v-5.237h3.272v-3.142c0-4.27 1.848-6.813 7.093-6.813h4.368v5.237h-2.728c-2.045 0-2.179 0.733-2.179 2.099l-0.008 2.619h4.947l-0.579 5.237h-4.368v15.19z"></path>
</symbol>
<symbol id="scroll-down-icon" viewBox="0 0 32 32">
<path stroke-linejoin="round" stroke-linecap="round" stroke-miterlimit="4" stroke-width="2.7826" d="M30.022 10.203h-28.18l13.932 11.366 14.248-11.366z"></path>
</symbol>
<symbol id="youtube-icon" viewBox="0 0 44 32">
<path d="M34.712 0.31h-24.624c-4.822 0-8.741 3.987-8.741 8.894v12.518c0 4.916 3.918 8.894 8.741 8.894h24.615c4.831 0 8.741-3.987 8.741-8.894v-12.518c0.009-4.907-3.909-8.894-8.732-8.894zM28.793 16.081l-11.517 5.585c-0.311 0.149-0.658-0.074-0.658-0.427v-11.524c0-0.353 0.365-0.576 0.667-0.418l11.517 5.939c0.347 0.177 0.338 0.678-0.009 0.846z"></path>
</symbol>
<symbol id="steam-icon" viewBox="0 0 32 32">
<path d="M16.283 31.493c8.587 0 15.549-6.932 15.549-15.484s-6.961-15.484-15.549-15.484c-8.587 0-15.549 6.932-15.549 15.484 0 1.577 0.237 3.1 0.677 4.533 0.112 0.020 0.294 0.066 0.559 0.143l-0.413-6.475c0-0.119 0.201-0.176 0.385-0.228 0.101-0.029 0.197-0.056 0.252-0.091 0.15-0.094 3.238 1.028 3.403 1.103l3.949 1.779c1.020-0.641 2.239-0.899 3.439-0.725l3.589-4.358c0.045-3.478 2.894-6.281 6.398-6.286 3.274 0.035 5.989 2.519 6.298 5.754 0.33 3.498-2.249 6.598-5.769 6.932l-5.979 4.248c-0.365 1.863-1.705 3.389-3.514 3.995-2.774 0.934-5.789-0.547-6.723-3.309l-2.079-0.686c-0.154-0.049-2.984-1.221-3.751-1.652 1.991 6.265 7.877 10.806 14.827 10.806zM26.172 11.765c0 1.756-1.432 3.18-3.199 3.18s-3.199-1.424-3.199-3.18c0-1.756 1.432-3.18 3.199-3.18s3.199 1.424 3.199 3.18zM25.108 11.765c0 1.172-0.956 2.122-2.134 2.122s-2.134-0.95-2.134-2.122c0-1.172 0.956-2.122 2.134-2.122s2.134 0.95 2.134 2.122zM10.922 24.167c0.43 0.209 0.905 0.318 1.385 0.318 0.365 0 0.72-0.060 1.070-0.174 0.805-0.278 1.46-0.86 1.829-1.62 0.77-1.585 0.1-3.483-1.49-4.248-0.27-0.129-0.585-0.020-0.715 0.244-0.13 0.268-0.020 0.581 0.245 0.71 0.035 0.015 0.070 0.030 0.105 0.050 1.050 0.537 1.455 1.814 0.915 2.857s-1.83 1.446-2.874 0.909c-0.27-0.129-0.585-0.020-0.715 0.244-0.13 0.268-0.020 0.581 0.245 0.71z"></path>
</symbol>
<symbol id="switch-icon" viewBox="0 0 32 32">
<path stroke-linejoin="round" stroke-linecap="round" stroke-miterlimit="4" stroke-width="2.8333" d="M9.955 1.647v28.693l11.573-14.186-11.573-14.507z"></path>
</symbol>
<symbol id="twitch-icon" viewBox="0 0 32 32">
<path d="M31.936 22.601v-20.712h-27.234l-3.404 3.675v19.376h8.511v6.013h3.745l4.085-4.343h10.213l4.085-4.009zM11.851 22.267h-5.447c-0.374 0-0.681-0.301-0.681-0.668v-16.369c0-0.367 0.306-0.668 0.681-0.668h21.787c0.374 0 0.681 0.301 0.681 0.668v12.695c0 0.184-0.068 0.351-0.196 0.476l-3.745 3.675c-0.128 0.125-0.306 0.192-0.485 0.192h-6.255l-5.277 3.558c-0.111 0.075-0.247 0.117-0.383 0.117-0.111 0-0.213-0.025-0.315-0.075-0.23-0.117-0.366-0.342-0.366-0.593v-3.007z"></path>
<path d="M22.064 16.421v-6.681h-2.724v6.681h2.724zM15.255 16.421v-6.681h-2.723v6.681h2.723z"></path>
</symbol>
<symbol id="twitter-icon" viewBox="0 0 32 32">
<path d="M30.856 7.171c-1.124 0.468-2.333 0.781-3.6 0.924 1.295-0.727 2.288-1.879 2.756-3.249-1.213 0.672-2.554 1.161-3.983 1.425-1.142-1.143-2.772-1.856-4.575-1.856-3.462 0-6.271 2.631-6.271 5.875 0 0.461 0.055 0.911 0.163 1.34-5.21-0.246-9.83-2.585-12.922-6.138-0.54 0.868-0.848 1.876-0.848 2.954 0 2.036 1.107 3.837 2.788 4.89-1.027-0.032-1.993-0.295-2.839-0.736 0 0.026 0 0.048 0 0.076 0 2.847 2.16 5.22 5.028 5.76-0.525 0.134-1.081 0.204-1.651 0.204-0.404 0-0.797-0.035-1.18-0.102 0.797 2.332 3.113 4.032 5.856 4.080-2.145 1.575-4.848 2.513-7.786 2.513-0.506 0-1.005-0.028-1.495-0.081 2.774 1.665 6.070 2.64 9.61 2.64 11.532 0 17.837-8.954 17.837-16.717 0-0.256-0.007-0.508-0.019-0.761 1.225-0.829 2.288-1.863 3.129-3.040z"></path>
</symbol>
<symbol id="xbox-icon" viewBox="0 0 32 32">
<path d="M10.892 3.26c1.635 0.641 3.216 1.488 4.706 2.523 0.17 0.115 0.363 0.175 0.557 0.175s0.388-0.061 0.557-0.175c1.49-1.034 3.071-1.887 4.706-2.529 0.369-0.145 0.618-0.508 0.612-0.907 0-0.399-0.248-0.756-0.624-0.895-3.271-1.24-7.232-1.24-10.496 0-0.369 0.139-0.624 0.502-0.624 0.895s0.23 0.768 0.606 0.913z"></path>
<path d="M24.938 3.266c-0.309-0.212-0.703-0.23-1.036-0.042-1.811 1.041-3.561 2.232-5.215 3.545-0.218 0.175-0.351 0.436-0.363 0.714s0.097 0.551 0.297 0.744c3.428 3.261 8.177 13.261 9.267 17.858-2.362-3.993-7.631-13.388-11.078-16.6-0.369-0.345-0.951-0.345-1.32 0-3.452 3.212-8.704 12.613-11.066 16.612 1.090-4.598 5.827-14.61 9.255-17.87 0.206-0.194 0.315-0.466 0.303-0.744s-0.145-0.538-0.363-0.714c-1.653-1.313-3.41-2.505-5.215-3.545-0.321-0.188-0.727-0.169-1.036 0.042-4.209 2.898-6.723 7.659-6.723 12.74 0 3.714 1.339 7.296 3.779 10.091 2.919 3.424 7.189 5.396 11.726 5.396s8.813-1.966 11.738-5.402c2.429-2.783 3.767-6.364 3.767-10.085 0-5.082-2.514-9.843-6.717-12.74z"></path>
</symbol>

</defs>
</svg>
